<svg width="12" height="12" viewBox="0 0 12 12" fill="none" xmlns="http://www.w3.org/2000/svg">
<path fill-rule="evenodd" clip-rule="evenodd" d="M11.9999 0.5C11.9999 0.367392 11.9472 0.240215 11.8535 0.146447C11.7597 0.0526785 11.6325 0 11.4999 0H5.4999C5.36729 0 5.24011 0.0526785 5.14635 0.146447C5.05258 0.240215 4.9999 0.367392 4.9999 0.5C4.9999 0.632608 5.05258 0.759785 5.14635 0.853553C5.24011 0.947321 5.36729 1 5.4999 1H10.2929L0.145899 11.146C0.0994111 11.1925 0.062535 11.2477 0.0373759 11.3084C0.0122168 11.3692 -0.000732422 11.4343 -0.000732422 11.5C-0.000732422 11.5657 0.0122168 11.6308 0.0373759 11.6916C0.062535 11.7523 0.0994111 11.8075 0.145899 11.854C0.192387 11.9005 0.247576 11.9374 0.308316 11.9625C0.369055 11.9877 0.434155 12.0006 0.499899 12.0006C0.565643 12.0006 0.630743 11.9877 0.691482 11.9625C0.752222 11.9374 0.807411 11.9005 0.853899 11.854L10.9999 1.707V6.5C10.9999 6.63261 11.0526 6.75979 11.1463 6.85355C11.2401 6.94732 11.3673 7 11.4999 7C11.6325 7 11.7597 6.94732 11.8535 6.85355C11.9472 6.75979 11.9999 6.63261 11.9999 6.5V0.5Z" fill="black"/>
</svg>
