<svg width="14" height="22" viewBox="0 0 14 22" fill="none" xmlns="http://www.w3.org/2000/svg">
<path fill-rule="evenodd" clip-rule="evenodd" d="M7.00003 21.5001C7.19894 21.5001 7.38971 21.4211 7.53036 21.2805C7.67101 21.1398 7.75003 20.949 7.75003 20.7501V3.06062L12.469 7.78112C12.6099 7.92195 12.8009 8.00107 13 8.00107C13.1992 8.00107 13.3902 7.92195 13.531 7.78112C13.6719 7.64029 13.751 7.44928 13.751 7.25012C13.751 7.05096 13.6719 6.85995 13.531 6.71912L7.53103 0.71912C7.46136 0.649275 7.3786 0.593861 7.28748 0.556051C7.19636 0.518241 7.09868 0.498779 7.00003 0.498779C6.90138 0.498779 6.8037 0.518241 6.71258 0.556051C6.62146 0.593861 6.5387 0.649275 6.46903 0.71912L0.469032 6.71912C0.3993 6.78885 0.343986 6.87163 0.306247 6.96274C0.268508 7.05385 0.249084 7.1515 0.249084 7.25012C0.249084 7.44928 0.328202 7.64029 0.469032 7.78112C0.609862 7.92195 0.800868 8.00107 1.00003 8.00107C1.1992 8.00107 1.3902 7.92195 1.53103 7.78112L6.25003 3.06062V20.7501C6.25003 20.949 6.32905 21.1398 6.4697 21.2805C6.61035 21.4211 6.80112 21.5001 7.00003 21.5001Z" fill="#151616"/>
</svg>
