<svg width="395" height="264" viewBox="0 0 395 264" fill="none" xmlns="http://www.w3.org/2000/svg">
<g clip-path="url(#clip0_698_1648)">
<path opacity="0.5" d="M77.339 120.42C77.339 53.914 131.253 0 197.759 0C264.266 0 318.18 53.9141 318.18 120.42V287.857H77.339V120.42Z" fill="url(#paint0_linear_698_1648)"/>
<path opacity="0.5" d="M89.3531 137.276C89.3531 77.4051 137.888 28.8699 197.759 28.8699C257.631 28.8699 306.166 77.4051 306.166 137.276V287.857H89.3531V137.276Z" fill="url(#paint1_linear_698_1648)"/>
<path opacity="0.5" d="M106.117 160.874C106.117 110.261 147.147 69.2314 197.759 69.2314C248.372 69.2314 289.402 110.261 289.402 160.874V287.857H106.117V160.874Z" fill="url(#paint2_linear_698_1648)"/>
<path opacity="0.5" d="M122.602 183.91C122.602 142.402 156.251 108.752 197.76 108.752C239.268 108.752 272.918 142.402 272.918 183.91V287.857H122.602V183.91Z" fill="url(#paint3_linear_698_1648)"/>
<path d="M305.833 58.4812C306.316 58.0993 306.762 57.7513 307.161 57.4426C306.745 57.5776 306.3 57.9364 305.833 58.4812C300.95 62.3417 292.224 69.6655 287.905 74.8448C281.972 81.9592 281.272 88.3345 284.551 89.1696C287.175 89.8377 292.285 88.8661 294.513 88.2967C296.858 79.5962 302.045 62.9053 305.833 58.4812Z" fill="url(#paint4_linear_698_1648)"/>
<path d="M264.188 81.475C261.817 82.1448 259.493 85.363 258.628 86.8884C264.04 83.482 270.282 83.0404 273.235 84.5428C276.188 86.0451 278.159 93.2075 281.873 97.5083C285.587 101.809 319.725 105.782 310.218 103.489C300.711 101.195 297.624 96.0514 293.481 88.8146C289.338 81.5778 285.877 79.3127 281.105 76.2276C276.334 73.1426 272.107 74.6967 269.953 76.5604C267.8 78.4242 267.153 80.6377 264.188 81.475Z" fill="url(#paint5_linear_698_1648)"/>
<path d="M313.02 65.5895C313.582 65.3391 314.1 65.1122 314.563 64.9121C314.127 64.9398 313.607 65.1771 313.02 65.5895C307.339 68.1212 297.08 73.0568 291.62 77.006C284.12 82.4307 281.873 88.4353 284.845 90.0568C287.222 91.354 292.414 91.6782 294.713 91.6782C299.127 83.828 308.26 68.9384 313.02 65.5895Z" fill="url(#paint6_linear_698_1648)"/>
<path d="M297.473 103.003C294.019 100.117 291.785 94.369 291.1 91.8556C292.9 93.2087 298.012 96.5476 304.065 99.0778C310.118 101.608 319.949 100.697 324.107 99.9259C322.482 100.448 318.21 101.766 314.123 102.858C310.036 103.949 305.189 105.805 303.276 106.596C302.781 106.601 300.927 105.89 297.473 103.003Z" fill="url(#paint7_linear_698_1648)"/>
<path d="M353.286 200.446C353.286 200.446 351.946 178.993 337.939 166.723C323.932 154.453 306.525 151.459 302.561 156.013C298.597 160.568 303.678 177.723 317.685 189.993C331.692 202.262 353.286 200.446 353.286 200.446Z" fill="url(#paint8_linear_698_1648)"/>
<path d="M373.567 144.047C373.567 144.047 353.332 131.869 333.49 136.954C313.648 142.039 300.071 156.009 301.714 162.461C303.357 168.913 322.042 175.001 341.884 169.916C361.725 164.831 373.567 144.047 373.567 144.047Z" fill="url(#paint9_linear_698_1648)"/>
<path d="M254.548 169.009C254.548 169.009 254.044 185.152 263.662 195.321C273.279 205.489 286.09 208.958 289.375 205.831C292.661 202.704 290.064 189.512 280.446 179.344C270.829 169.176 254.548 169.009 254.548 169.009Z" fill="url(#paint10_linear_698_1648)"/>
<path d="M327.196 129.161C325.446 130.187 322.949 132.025 320.047 134.699M291.64 273.045C290.97 269.652 289.501 251.57 289.497 230.599M320.047 134.699C313.303 140.916 304.373 151.65 297.557 167.209C291.215 181.684 289.493 207.842 289.497 230.599M320.047 134.699L329.76 133.346M289.497 230.599L285.968 224.164" stroke="url(#paint11_linear_698_1648)" stroke-width="3" stroke-linecap="round"/>
<path d="M89.3818 58.4812C88.8988 58.0993 88.4534 57.7513 88.0536 57.4426C88.4699 57.5776 88.9153 57.9364 89.3818 58.4812C94.2646 62.3417 102.991 69.6655 107.31 74.8448C113.243 81.9592 113.943 88.3345 110.664 89.1696C108.04 89.8377 102.93 88.8661 100.702 88.2967C98.3566 79.5962 93.1704 62.9053 89.3818 58.4812Z" fill="url(#paint12_linear_698_1648)"/>
<path d="M131.027 81.475C133.398 82.1448 135.722 85.363 136.587 86.8884C131.175 83.482 124.934 83.0404 121.98 84.5428C119.027 86.0451 117.056 93.2075 113.342 97.5083C109.628 101.809 75.4904 105.782 84.9971 103.489C94.5038 101.195 97.5915 96.0514 101.734 88.8146C105.877 81.5778 109.338 79.3127 114.11 76.2276C118.881 73.1426 123.108 74.6967 125.262 76.5604C127.415 78.4242 128.062 80.6377 131.027 81.475Z" fill="url(#paint13_linear_698_1648)"/>
<path d="M82.1946 65.5895C81.6325 65.3391 81.1153 65.1122 80.6519 64.9121C81.0885 64.9398 81.6084 65.1771 82.1946 65.5895C87.8763 68.1212 98.1354 73.0568 103.595 77.006C111.095 82.4307 113.342 88.4353 110.37 90.0568C107.993 91.354 102.801 91.6782 100.502 91.6782C96.0882 83.828 86.9547 68.9384 82.1946 65.5895Z" fill="url(#paint14_linear_698_1648)"/>
<path d="M97.7419 103.003C101.196 100.117 103.43 94.369 104.115 91.8556C102.315 93.2087 97.203 96.5476 91.15 99.0778C85.0969 101.608 75.2663 100.697 71.1075 99.9259C72.7328 100.448 77.0051 101.766 81.092 102.858C85.1789 103.949 90.0259 105.805 91.9386 106.596C92.4338 106.601 94.2878 105.89 97.7419 103.003Z" fill="url(#paint15_linear_698_1648)"/>
<path d="M41.9294 200.446C41.9294 200.446 43.2688 178.993 57.276 166.723C71.2833 154.453 88.6899 151.459 92.6542 156.013C96.6185 160.568 91.5374 177.723 77.5302 189.993C63.5229 202.262 41.9294 200.446 41.9294 200.446Z" fill="url(#paint16_linear_698_1648)"/>
<path d="M21.6475 144.047C21.6475 144.047 41.8832 131.869 61.7251 136.954C81.5669 142.039 95.1441 156.009 93.5012 162.461C91.8583 168.913 73.1732 175.001 53.3314 169.916C33.4896 164.831 21.6475 144.047 21.6475 144.047Z" fill="url(#paint17_linear_698_1648)"/>
<path d="M140.667 169.009C140.667 169.009 141.171 185.152 131.553 195.321C121.936 205.489 109.125 208.958 105.84 205.831C102.554 202.704 105.151 189.512 114.769 179.344C124.386 169.176 140.667 169.009 140.667 169.009Z" fill="url(#paint18_linear_698_1648)"/>
<path d="M68.0192 129.161C69.7692 130.187 72.2661 132.025 75.1676 134.699M103.575 273.045C104.245 269.652 105.714 251.57 105.718 230.599M75.1676 134.699C81.9119 140.916 90.8421 151.65 97.6585 167.209C104.001 181.684 105.722 207.842 105.718 230.599M75.1676 134.699L65.4547 133.346M105.718 230.599L109.247 224.164" stroke="url(#paint19_linear_698_1648)" stroke-width="3" stroke-linecap="round"/>
</g>
<defs>
<linearGradient id="paint0_linear_698_1648" x1="197.759" y1="0" x2="197.759" y2="287.857" gradientUnits="userSpaceOnUse">
<stop stop-color="#E8FEFF"/>
<stop offset="1" stop-color="#668B8D" stop-opacity="0"/>
</linearGradient>
<linearGradient id="paint1_linear_698_1648" x1="197.759" y1="28.8699" x2="197.759" y2="287.857" gradientUnits="userSpaceOnUse">
<stop stop-color="#E8FEFF"/>
<stop offset="1" stop-color="#668B8D" stop-opacity="0"/>
</linearGradient>
<linearGradient id="paint2_linear_698_1648" x1="197.759" y1="69.2314" x2="197.759" y2="287.857" gradientUnits="userSpaceOnUse">
<stop stop-color="#E8FEFF"/>
<stop offset="1" stop-color="#668B8D" stop-opacity="0"/>
</linearGradient>
<linearGradient id="paint3_linear_698_1648" x1="197.76" y1="108.752" x2="197.76" y2="287.857" gradientUnits="userSpaceOnUse">
<stop stop-color="#E8FEFF"/>
<stop offset="1" stop-color="#668B8D" stop-opacity="0"/>
</linearGradient>
<linearGradient id="paint4_linear_698_1648" x1="293.732" y1="58.6194" x2="296.362" y2="88.6306" gradientUnits="userSpaceOnUse">
<stop stop-color="#3D5E60"/>
<stop offset="1" stop-color="#3D5E60" stop-opacity="0"/>
</linearGradient>
<linearGradient id="paint5_linear_698_1648" x1="266.043" y1="78.5853" x2="299.889" y2="103.907" gradientUnits="userSpaceOnUse">
<stop stop-color="#3D5E60"/>
<stop offset="1" stop-color="#3D5E60" stop-opacity="0"/>
</linearGradient>
<linearGradient id="paint6_linear_698_1648" x1="301.26" y1="62.7262" x2="296.375" y2="92.452" gradientUnits="userSpaceOnUse">
<stop stop-color="#3D5E60"/>
<stop offset="1" stop-color="#3D5E60" stop-opacity="0"/>
</linearGradient>
<linearGradient id="paint7_linear_698_1648" x1="290.933" y1="91.9248" x2="311.375" y2="105.15" gradientUnits="userSpaceOnUse">
<stop stop-color="#3D5E60"/>
<stop offset="1" stop-color="#3D5E60" stop-opacity="0"/>
</linearGradient>
<linearGradient id="paint8_linear_698_1648" x1="303.578" y1="154.578" x2="354.024" y2="200.619" gradientUnits="userSpaceOnUse">
<stop stop-color="#43696B"/>
<stop offset="1" stop-color="#4E9599" stop-opacity="0.06"/>
</linearGradient>
<linearGradient id="paint9_linear_698_1648" x1="301.051" y1="160.639" x2="374.261" y2="143.818" gradientUnits="userSpaceOnUse">
<stop stop-color="#43696B"/>
<stop offset="1" stop-color="#4E9599" stop-opacity="0.06"/>
</linearGradient>
<linearGradient id="paint10_linear_698_1648" x1="288.514" y1="206.833" x2="254.008" y2="168.828" gradientUnits="userSpaceOnUse">
<stop stop-color="#43696B"/>
<stop offset="1" stop-color="#4E9599" stop-opacity="0.06"/>
</linearGradient>
<linearGradient id="paint11_linear_698_1648" x1="326.607" y1="128.7" x2="287.109" y2="273.281" gradientUnits="userSpaceOnUse">
<stop stop-color="#4A7B7D"/>
<stop offset="1" stop-color="#9BD8DB" stop-opacity="0.78"/>
</linearGradient>
<linearGradient id="paint12_linear_698_1648" x1="101.483" y1="58.6194" x2="98.8534" y2="88.6306" gradientUnits="userSpaceOnUse">
<stop stop-color="#3D5E60"/>
<stop offset="1" stop-color="#3D5E60" stop-opacity="0"/>
</linearGradient>
<linearGradient id="paint13_linear_698_1648" x1="129.172" y1="78.5853" x2="95.3262" y2="103.907" gradientUnits="userSpaceOnUse">
<stop stop-color="#3D5E60"/>
<stop offset="1" stop-color="#3D5E60" stop-opacity="0"/>
</linearGradient>
<linearGradient id="paint14_linear_698_1648" x1="93.9553" y1="62.7262" x2="98.8396" y2="92.452" gradientUnits="userSpaceOnUse">
<stop stop-color="#3D5E60"/>
<stop offset="1" stop-color="#3D5E60" stop-opacity="0"/>
</linearGradient>
<linearGradient id="paint15_linear_698_1648" x1="104.282" y1="91.9248" x2="83.8401" y2="105.15" gradientUnits="userSpaceOnUse">
<stop stop-color="#3D5E60"/>
<stop offset="1" stop-color="#3D5E60" stop-opacity="0"/>
</linearGradient>
<linearGradient id="paint16_linear_698_1648" x1="91.6371" y1="154.578" x2="41.1915" y2="200.619" gradientUnits="userSpaceOnUse">
<stop stop-color="#43696B"/>
<stop offset="1" stop-color="#4E9599" stop-opacity="0.06"/>
</linearGradient>
<linearGradient id="paint17_linear_698_1648" x1="94.1638" y1="160.639" x2="20.9537" y2="143.818" gradientUnits="userSpaceOnUse">
<stop stop-color="#43696B"/>
<stop offset="1" stop-color="#4E9599" stop-opacity="0.06"/>
</linearGradient>
<linearGradient id="paint18_linear_698_1648" x1="106.701" y1="206.833" x2="141.207" y2="168.828" gradientUnits="userSpaceOnUse">
<stop stop-color="#43696B"/>
<stop offset="1" stop-color="#4E9599" stop-opacity="0.06"/>
</linearGradient>
<linearGradient id="paint19_linear_698_1648" x1="68.6079" y1="128.7" x2="108.106" y2="273.281" gradientUnits="userSpaceOnUse">
<stop stop-color="#4A7B7D"/>
<stop offset="1" stop-color="#9BD8DB" stop-opacity="0.78"/>
</linearGradient>
<clipPath id="clip0_698_1648">
<rect width="395" height="264" fill="white"/>
</clipPath>
</defs>
</svg>