<svg width="154" height="40" viewBox="0 0 154 40" fill="none" xmlns="http://www.w3.org/2000/svg">
<g clip-path="url(#clip0_725_1112)">
<path fill-rule="evenodd" clip-rule="evenodd" d="M1 0C0.447715 0 0 0.447714 0 0.999999V24.9412C0 33.2579 6.74206 40 15.0588 40C15.5786 40 16 39.5786 16 39.0588V1C16 0.447715 15.5523 0 15 0H1ZM8 2C8 5.31371 5.31371 8 2 8C5.31371 8 8 10.6863 8 14C8 10.6863 10.6863 8 14 8C10.6863 8 8 5.31371 8 2Z" fill="#A0D8DB"/>
<path fill-rule="evenodd" clip-rule="evenodd" d="M19 40C18.4477 40 18 39.5523 18 39L18 15.0588C18 6.74207 24.7421 7.27074e-07 33.0588 0C33.5786 -4.54421e-08 34 0.421379 34 0.941177L34 39C34 39.5523 33.5523 40 33 40H19ZM26 38C26 34.6863 23.3137 32 20 32C23.3137 32 26 29.3137 26 26C26 29.3137 28.6863 32 32 32C28.6863 32 26 34.6863 26 38Z" fill="#A0D8DB"/>
</g>
<path d="M48.32 22.2666C46.7022 22.2666 45.3244 21.9821 44.1866 21.4133C43.0488 20.8266 42.1777 20.0088 41.5733 18.9599C40.9688 17.911 40.6666 16.6844 40.6666 15.2799V3.33325H45.0666V15.2799C45.0666 15.9733 45.2 16.5688 45.4666 17.0666C45.7333 17.5644 46.1066 17.9555 46.5866 18.2399C47.0844 18.5066 47.6622 18.6399 48.32 18.6399C48.9955 18.6399 49.5733 18.5066 50.0533 18.2399C50.5333 17.9555 50.9066 17.5644 51.1733 17.0666C51.44 16.5688 51.5733 15.9733 51.5733 15.2799V3.33325H55.9733V15.2799C55.9733 16.6844 55.6711 17.911 55.0666 18.9599C54.4622 20.0088 53.5911 20.8266 52.4533 21.4133C51.3155 21.9821 49.9377 22.2666 48.32 22.2666Z" fill="#151616"/>
<path d="M60.4904 21.9466V3.33325H66.0904L71.2904 16.5066L70.997 9.73325V3.33325H75.1304V21.9466H69.5304L64.277 9.01325L64.6237 15.5466V21.9466H60.4904Z" fill="#151616"/>
<path d="M85.0608 21.9466V3.33325H89.4608V21.9466H85.0608ZM80.7941 3.33325H93.7275V6.93325H80.7941V3.33325ZM80.7941 18.3466H93.7275V21.9466H80.7941V18.3466Z" fill="#151616"/>
<path d="M102.911 14.9866V11.3866H107.098C107.631 11.3866 108.093 11.2888 108.485 11.0933C108.893 10.8977 109.205 10.6221 109.418 10.2666C109.649 9.91103 109.765 9.51103 109.765 9.06659C109.765 8.63992 109.658 8.26659 109.445 7.94659C109.249 7.62659 108.973 7.3777 108.618 7.19992C108.262 7.02214 107.853 6.93325 107.391 6.93325H102.911V3.33325H107.391C108.742 3.33325 109.933 3.56436 110.965 4.02658C112.013 4.47103 112.831 5.11992 113.418 5.97325C114.005 6.82659 114.298 7.8577 114.298 9.06659C114.298 9.79547 114.12 10.5155 113.765 11.2266C113.427 11.9199 112.929 12.551 112.271 13.1199C111.631 13.6888 110.849 14.1421 109.925 14.4799C109.018 14.8177 107.987 14.9866 106.831 14.9866H102.911ZM99.7379 21.9466V3.33325H104.138V21.9466H99.7379ZM109.871 21.9466C109.871 21.1644 109.729 20.3733 109.445 19.5733C109.16 18.7555 108.742 17.9821 108.191 17.2533C107.658 16.5066 106.991 15.831 106.191 15.2266C105.391 14.6221 104.467 14.1333 103.418 13.7599L108.298 12.7733C109.329 13.2888 110.227 13.9021 110.991 14.6133C111.756 15.3244 112.387 16.0888 112.885 16.9066C113.4 17.7244 113.782 18.5688 114.031 19.4399C114.28 20.2933 114.405 21.1288 114.405 21.9466H109.871Z" fill="#151616"/>
<path d="M119.508 21.9466V3.33325H133.295V6.93325H123.908V10.5333H129.962V14.1333H123.908V18.3466H133.402V21.9466H119.508Z" fill="#151616"/>
<path d="M141.785 16.1066V12.5066H146.025C146.879 12.5066 147.563 12.2488 148.079 11.7333C148.594 11.1999 148.852 10.5066 148.852 9.65325C148.852 8.83547 148.594 8.1777 148.079 7.67992C147.563 7.18214 146.879 6.93325 146.025 6.93325H141.785V3.33325H146.052C147.528 3.33325 148.816 3.59103 149.919 4.10658C151.021 4.62214 151.874 5.35992 152.479 6.31992C153.083 7.26214 153.385 8.37325 153.385 9.65325C153.385 10.951 153.083 12.0888 152.479 13.0666C151.874 14.0266 151.021 14.7733 149.919 15.3066C148.834 15.8399 147.545 16.1066 146.052 16.1066H141.785ZM138.639 21.9466V3.33325H143.039V21.9466H138.639Z" fill="#151616"/>
<path d="M42.1533 32.4966V31.2466H45.32C46.1311 31.2466 46.7867 31.03 47.2867 30.5966C47.7867 30.1633 48.0367 29.5911 48.0367 28.8799C48.0367 28.1799 47.8033 27.6188 47.3367 27.1966C46.8811 26.7744 46.2756 26.5633 45.52 26.5633H42.1533V25.3133H45.5367C46.3478 25.3133 47.0533 25.4633 47.6533 25.7633C48.2533 26.0522 48.72 26.4633 49.0533 26.9966C49.3867 27.5188 49.5533 28.1466 49.5533 28.8799C49.5533 29.6022 49.3756 30.2355 49.02 30.78C48.6756 31.3244 48.1867 31.7466 47.5533 32.0466C46.92 32.3466 46.1756 32.4966 45.32 32.4966H42.1533ZM41.12 36.9466V25.3133H42.5533V36.9466H41.12Z" fill="#151616"/>
<path d="M57.0598 31.9133V30.6633H60.1098C60.6543 30.6633 61.1321 30.5799 61.5432 30.4133C61.9654 30.2355 62.2932 29.9855 62.5265 29.6633C62.771 29.3299 62.8932 28.9466 62.8932 28.5133C62.8932 28.1133 62.7876 27.7688 62.5765 27.4799C62.3654 27.1911 62.0821 26.9688 61.7265 26.8133C61.371 26.6466 60.9765 26.5633 60.5432 26.5633H57.0598V25.3133H60.5432C61.2876 25.3133 61.9487 25.4411 62.5265 25.6966C63.1154 25.9522 63.5765 26.3188 63.9098 26.7966C64.2432 27.2744 64.4098 27.8466 64.4098 28.5133C64.4098 28.9577 64.3098 29.3855 64.1098 29.7966C63.9209 30.1966 63.6376 30.5577 63.2598 30.8799C62.8821 31.1911 62.4265 31.4411 61.8932 31.63C61.3598 31.8188 60.7487 31.9133 60.0598 31.9133H57.0598ZM56.0265 36.9466V25.3133H57.4598V36.9466H56.0265ZM62.8265 36.9466C62.7376 36.4133 62.5765 35.8911 62.3432 35.38C62.121 34.8688 61.8209 34.38 61.4432 33.9133C61.0765 33.4466 60.6154 33.0077 60.0598 32.5966C59.5043 32.1855 58.8598 31.8077 58.1265 31.4633L59.7265 31.0966C60.5043 31.4744 61.1654 31.8911 61.7098 32.3466C62.2543 32.7911 62.7043 33.2633 63.0598 33.7633C63.4265 34.2522 63.7043 34.7633 63.8932 35.2966C64.0821 35.83 64.2098 36.38 64.2765 36.9466H62.8265Z" fill="#151616"/>
<path d="M74.7663 37.1466C73.7886 37.1466 72.9386 36.9022 72.2164 36.4133C71.4941 35.9133 70.933 35.2133 70.533 34.3133C70.1441 33.4022 69.9497 32.3411 69.9497 31.1299C69.9497 29.9077 70.1441 28.8466 70.533 27.9466C70.933 27.0466 71.4941 26.3522 72.2164 25.8633C72.9386 25.3633 73.7886 25.1133 74.7663 25.1133C75.7441 25.1133 76.5941 25.3633 77.3164 25.8633C78.0386 26.3522 78.5941 27.0466 78.983 27.9466C79.383 28.8466 79.583 29.9077 79.583 31.1299C79.583 32.3411 79.383 33.4022 78.983 34.3133C78.5941 35.2133 78.0386 35.9133 77.3164 36.4133C76.5941 36.9022 75.7441 37.1466 74.7663 37.1466ZM74.7663 35.8966C75.433 35.8966 76.0108 35.7022 76.4997 35.3133C76.9997 34.9244 77.383 34.3744 77.6497 33.6633C77.9275 32.9411 78.0663 32.0966 78.0663 31.1299C78.0663 30.1633 77.9275 29.3244 77.6497 28.6133C77.383 27.9022 76.9997 27.3522 76.4997 26.9633C76.0108 26.5633 75.433 26.3633 74.7663 26.3633C74.0997 26.3633 73.5164 26.5633 73.0164 26.9633C72.5275 27.3522 72.1441 27.9022 71.8664 28.6133C71.5886 29.3244 71.4497 30.1633 71.4497 31.1299C71.4497 32.0966 71.5886 32.9411 71.8664 33.6633C72.1441 34.3744 72.5275 34.9244 73.0164 35.3133C73.5164 35.7022 74.0997 35.8966 74.7663 35.8966Z" fill="#151616"/>
<path d="M88.8562 36.9466V26.5633H84.9895V25.3133H94.1729V26.5633H90.3062V36.9466H88.8562Z" fill="#151616"/>
<path d="M104.446 37.1466C103.468 37.1466 102.618 36.9022 101.896 36.4133C101.174 35.9133 100.613 35.2133 100.213 34.3133C99.8238 33.4022 99.6294 32.3411 99.6294 31.1299C99.6294 29.9077 99.8238 28.8466 100.213 27.9466C100.613 27.0466 101.174 26.3522 101.896 25.8633C102.618 25.3633 103.468 25.1133 104.446 25.1133C105.424 25.1133 106.274 25.3633 106.996 25.8633C107.718 26.3522 108.274 27.0466 108.663 27.9466C109.063 28.8466 109.263 29.9077 109.263 31.1299C109.263 32.3411 109.063 33.4022 108.663 34.3133C108.274 35.2133 107.718 35.9133 106.996 36.4133C106.274 36.9022 105.424 37.1466 104.446 37.1466ZM104.446 35.8966C105.113 35.8966 105.69 35.7022 106.179 35.3133C106.679 34.9244 107.063 34.3744 107.329 33.6633C107.607 32.9411 107.746 32.0966 107.746 31.1299C107.746 30.1633 107.607 29.3244 107.329 28.6133C107.063 27.9022 106.679 27.3522 106.179 26.9633C105.69 26.5633 105.113 26.3633 104.446 26.3633C103.779 26.3633 103.196 26.5633 102.696 26.9633C102.207 27.3522 101.824 27.9022 101.546 28.6133C101.268 29.3244 101.129 30.1633 101.129 31.1299C101.129 32.0966 101.268 32.9411 101.546 33.6633C101.824 34.3744 102.207 34.9244 102.696 35.3133C103.196 35.7022 103.779 35.8966 104.446 35.8966Z" fill="#151616"/>
<path d="M119.503 37.1466C118.48 37.1466 117.591 36.8855 116.836 36.3633C116.091 35.8411 115.519 35.13 115.119 34.23C114.719 33.3188 114.519 32.28 114.519 31.1133C114.519 29.8911 114.73 28.8299 115.153 27.9299C115.575 27.0299 116.164 26.3355 116.919 25.8466C117.675 25.3577 118.547 25.1133 119.536 25.1133C120.347 25.1133 121.075 25.2744 121.719 25.5966C122.364 25.9077 122.891 26.3577 123.303 26.9466C123.714 27.5355 123.958 28.2299 124.036 29.0299H122.436C122.347 28.2299 122.041 27.5855 121.519 27.0966C120.997 26.6077 120.33 26.3633 119.519 26.3633C118.83 26.3633 118.225 26.5577 117.703 26.9466C117.18 27.3355 116.769 27.8911 116.469 28.6133C116.18 29.3244 116.036 30.1633 116.036 31.1299C116.036 32.1077 116.186 32.9577 116.486 33.68C116.786 34.3911 117.197 34.9411 117.719 35.33C118.241 35.7077 118.836 35.8966 119.503 35.8966C120.069 35.8966 120.564 35.78 120.986 35.5466C121.419 35.3133 121.764 34.9855 122.019 34.5633C122.286 34.1411 122.447 33.6466 122.503 33.08H124.086C124.008 33.8911 123.769 34.6077 123.369 35.23C122.98 35.8411 122.458 36.3133 121.803 36.6466C121.147 36.98 120.38 37.1466 119.503 37.1466Z" fill="#151616"/>
<path d="M134.126 37.1466C133.148 37.1466 132.298 36.9022 131.576 36.4133C130.854 35.9133 130.292 35.2133 129.892 34.3133C129.504 33.4022 129.309 32.3411 129.309 31.1299C129.309 29.9077 129.504 28.8466 129.892 27.9466C130.292 27.0466 130.854 26.3522 131.576 25.8633C132.298 25.3633 133.148 25.1133 134.126 25.1133C135.104 25.1133 135.954 25.3633 136.676 25.8633C137.398 26.3522 137.954 27.0466 138.342 27.9466C138.742 28.8466 138.942 29.9077 138.942 31.1299C138.942 32.3411 138.742 33.4022 138.342 34.3133C137.954 35.2133 137.398 35.9133 136.676 36.4133C135.954 36.9022 135.104 37.1466 134.126 37.1466ZM134.126 35.8966C134.792 35.8966 135.37 35.7022 135.859 35.3133C136.359 34.9244 136.742 34.3744 137.009 33.6633C137.287 32.9411 137.426 32.0966 137.426 31.1299C137.426 30.1633 137.287 29.3244 137.009 28.6133C136.742 27.9022 136.359 27.3522 135.859 26.9633C135.37 26.5633 134.792 26.3633 134.126 26.3633C133.459 26.3633 132.876 26.5633 132.376 26.9633C131.887 27.3522 131.504 27.9022 131.226 28.6133C130.948 29.3244 130.809 30.1633 130.809 31.1299C130.809 32.0966 130.948 32.9411 131.226 33.6633C131.504 34.3744 131.887 34.9244 132.376 35.3133C132.876 35.7022 133.459 35.8966 134.126 35.8966Z" fill="#151616"/>
<path d="M145.516 36.9466V25.3133H146.949V35.6966H153.199V36.9466H145.516Z" fill="#151616"/>
<defs>
<clipPath id="clip0_725_1112">
<rect width="34" height="40" fill="white"/>
</clipPath>
</defs>
</svg>